<svg height="511pt" viewBox="0 -5 511.99972 511" width="511pt" xmlns="http://www.w3.org/2000/svg"><path d="m43.152344 395.371094c3.371094 4.890625 6.914062 9.652344 10.621094 14.277344l78.71875 64.539062c33.695312 17.449219 71.949218 27.3125 112.507812 27.3125 45.65625 0 88.390625-12.5 124.980469-34.25l60.082031-50.195312c37.335938-43 59.941406-99.136719 59.941406-160.554688 0-135.3125-109.691406-245.003906-245.003906-245.003906-135.308594 0-245 109.691406-245 245.003906 0 33.472656 6.722656 65.371094 18.871094 94.433594zm0 0" fill="#7fbc0a"/><path d="m296.460938 459.617188c-4.648438 0-8.414063-3.769532-8.414063-8.417969v-5.460938c0-4.648437 3.765625-8.414062 8.414063-8.414062 4.648437 0 8.414062 3.765625 8.414062 8.414062v5.460938c0 4.648437-3.765625 8.417969-8.414062 8.417969zm0 0" fill="#b8dcf2"/><path d="m191.269531 459.617188c-4.648437 0-8.414062-3.769532-8.414062-8.417969v-5.460938c0-4.648437 3.765625-8.414062 8.414062-8.414062 4.644531 0 8.414063 3.765625 8.414063 8.414062v5.460938c0 4.648437-3.765625 8.417969-8.414063 8.417969zm0 0" fill="#b8dcf2"/><path d="m358.882812 444.917969 11.101563 22.332031c11.136719-6.617188 21.707031-14.089844 31.617187-22.332031zm0 0" fill="#deeefa"/><path d="m132.496094 474.1875v-29.269531h-44.09375c13.542968 11.265625 28.316406 21.097656 44.09375 29.269531zm0 0" fill="#deeefa"/><path d="m75.015625 417.054688c-8.019531 0-15.398437-2.777344-21.242187-7.40625 11.136718 13.886718 23.75 26.53125 37.609374 37.699218h307.238282c11.355468-9.152344 21.886718-19.285156 31.441406-30.292968zm0 0" fill="#b8dcf2"/><path d="m235.449219 432.695312c0-6.488281 3.261719-12.214843 8.226562-15.640624h-168.660156c-8.019531 0-15.394531-2.777344-21.242187-7.40625 11.136718 13.882812 23.75 26.53125 37.609374 37.699218h150.972657c-4.21875-3.484375-6.90625-8.753906-6.90625-14.652344zm0 0" fill="#89c2e5"/><path d="m40.746094 382.785156c0-8.089844 2.875-15.945312 8.097656-22.121094l28.679688-33.9375c15.878906-18.796874 23.230468-43.578124 20.167968-67.992187l-17.472656-154.707031h-30.527344l17.941406 158.480468c2.011719 16.039063-2.816406 32.320313-13.25 44.664063l-28.679687 33.9375c-2.59375 3.070313-4.871094 6.363281-6.832031 9.824219 6.570312 15.710937 14.730468 30.585937 24.277344 44.4375-1.542969-3.898438-2.402344-8.144532-2.402344-12.585938zm0 0" fill="#89c2e5"/><path d="m56.8125 26.550781h-16.46875l5.625 50.550781h30.476562l-6.214843-55.878906c-3.511719 3.292969-8.222657 5.328125-13.417969 5.328125zm0 0" fill="#ed3346"/><path d="m63.480469 39.769531h-43.847657c-10.84375 0-19.632812-8.792969-19.632812-19.636719s8.789062-19.632812 19.632812-19.632812h43.847657c10.84375 0 19.632812 8.789062 19.632812 19.632812.003907 10.84375-8.789062 19.636719-19.632812 19.636719zm0 0" fill="#ff6683"/><path d="m39.894531 20.132812c0-10.84375 8.792969-19.632812 19.636719-19.632812h-39.898438c-10.84375 0-19.632812 8.789062-19.632812 19.632812s8.789062 19.636719 19.632812 19.636719h39.898438c-10.84375 0-19.636719-8.792969-19.636719-19.636719zm0 0" fill="#f94862"/><path d="m84.003906 105.152344h-38.988281c-8.367187 0-15.148437-6.78125-15.148437-15.148438 0-8.363281 6.78125-15.144531 15.148437-15.144531h38.988281c8.363282 0 15.144532 6.78125 15.144532 15.144531 0 8.367188-6.78125 15.148438-15.144532 15.148438zm0 0" fill="#deeefa"/><path d="m64.507812 90.003906c0-8.363281 6.78125-15.144531 15.148438-15.144531h-34.640625c-8.367187 0-15.148437 6.78125-15.148437 15.144531 0 8.363282 6.78125 15.144532 15.148437 15.144532h34.640625c-8.367188.003906-15.148438-6.777344-15.148438-15.144532zm0 0" fill="#b8dcf2"/><path d="m480.738281 332.808594h-360.417969c-12.476562 0-22.953124-9.347656-24.371093-21.746094l-22.597657-197.664062c-.292968-2.566407.609376-5.121094 2.445313-6.9375 1.835937-1.816407 4.402344-2.6875 6.960937-2.367188l401.027344 50.214844c12.246094 1.535156 21.484375 12 21.484375 24.34375v129.625c0 13.527344-11.007812 24.53125-24.53125 24.53125zm-389.449219-210.6875 21.378907 187.03125c.445312 3.894531 3.734375 6.828125 7.652343 6.828125h360.417969c4.246094 0 7.699219-3.453125 7.699219-7.703125v-129.625c0-3.875-2.898438-7.160156-6.742188-7.644532v.003907zm0 0" fill="#b8dcf2"/><path d="m138.675781 336.175781c-4.648437 0-8.417969-3.765625-8.417969-8.414062v-212.675781c0-4.644532 3.769532-8.414063 8.417969-8.414063 4.644531 0 8.414063 3.769531 8.414063 8.414063v212.675781c0 4.648437-3.769532 8.414062-8.414063 8.414062zm0 0" fill="#fff"/><path d="m191.269531 336.175781c-4.648437 0-8.414062-3.765625-8.414062-8.414062v-206.085938c0-4.648437 3.765625-8.417969 8.414062-8.417969 4.644531 0 8.414063 3.769532 8.414063 8.417969v206.085938c0 4.648437-3.765625 8.414062-8.414063 8.414062zm0 0" fill="#fff"/><path d="m243.863281 336.175781c-4.644531 0-8.414062-3.765625-8.414062-8.414062v-199.5c0-4.648438 3.769531-8.417969 8.414062-8.417969 4.648438 0 8.417969 3.769531 8.417969 8.417969v199.5c0 4.648437-3.769531 8.414062-8.417969 8.414062zm0 0" fill="#fff"/><path d="m349.058594 336.175781c-4.648438 0-8.417969-3.765625-8.417969-8.414062v-186.328125c0-4.648438 3.769531-8.417969 8.417969-8.417969 4.644531 0 8.414062 3.769531 8.414062 8.417969v186.328125c0 4.648437-3.769531 8.414062-8.414062 8.414062zm0 0" fill="#fff"/><path d="m296.460938 336.175781c-4.648438 0-8.414063-3.765625-8.414063-8.414062v-192.914063c0-4.648437 3.765625-8.417968 8.414063-8.417968 4.648437 0 8.414062 3.769531 8.414062 8.417968v192.914063c0 4.648437-3.765625 8.414062-8.414062 8.414062zm0 0" fill="#fff"/><path d="m401.652344 336.175781c-4.644532 0-8.414063-3.765625-8.414063-8.414062v-179.742188c0-4.648437 3.765625-8.417969 8.414063-8.417969 4.648437 0 8.414062 3.769532 8.414062 8.417969v179.742188c0 4.648437-3.765625 8.414062-8.414062 8.414062zm0 0" fill="#fff"/><path d="m454.25 336.175781c-4.648438 0-8.414062-3.765625-8.414062-8.414062v-173.15625c0-4.648438 3.765624-8.417969 8.414062-8.417969 4.644531 0 8.414062 3.769531 8.414062 8.417969v173.15625c0 4.648437-3.769531 8.414062-8.414062 8.414062zm0 0" fill="#fff"/><g fill="#deeefa"><path d="m138.675781 241.183594c-4.648437 0-8.417969-3.769532-8.417969-8.414063v94.992188c0 4.648437 3.769532 8.414062 8.417969 8.414062 4.644531 0 8.414063-3.765625 8.414063-8.414062v-94.992188c0 4.644531-3.769532 8.414063-8.414063 8.414063zm0 0"/><path d="m191.269531 241.183594c-4.648437 0-8.414062-3.769532-8.414062-8.414063v94.992188c0 4.648437 3.765625 8.414062 8.414062 8.414062 4.648438 0 8.414063-3.765625 8.414063-8.414062v-94.992188c0 4.644531-3.765625 8.414063-8.414063 8.414063zm0 0"/><path d="m243.867188 241.183594c-4.648438 0-8.417969-3.769532-8.417969-8.414063v94.992188c0 4.648437 3.769531 8.414062 8.417969 8.414062 4.644531 0 8.414062-3.765625 8.414062-8.414062v-94.992188c0 4.644531-3.769531 8.414063-8.414062 8.414063zm0 0"/><path d="m349.058594 241.183594c-4.648438 0-8.417969-3.769532-8.417969-8.414063v94.992188c0 4.648437 3.769531 8.414062 8.417969 8.414062 4.644531 0 8.414062-3.765625 8.414062-8.414062v-94.992188c0 4.644531-3.769531 8.414063-8.414062 8.414063zm0 0"/><path d="m296.460938 241.183594c-4.648438 0-8.414063-3.769532-8.414063-8.414063v94.992188c0 4.648437 3.765625 8.414062 8.414063 8.414062 4.648437 0 8.414062-3.765625 8.414062-8.414062v-94.992188c0 4.644531-3.765625 8.414063-8.414062 8.414063zm0 0"/><path d="m401.652344 241.183594c-4.644532 0-8.414063-3.769532-8.414063-8.414063v94.992188c0 4.648437 3.765625 8.414062 8.414063 8.414062 4.648437 0 8.414062-3.765625 8.414062-8.414062v-94.992188c0 4.644531-3.765625 8.414063-8.414062 8.414063zm0 0"/><path d="m454.25 241.183594c-4.648438 0-8.414062-3.769532-8.414062-8.414063v94.992188c0 4.648437 3.765624 8.414062 8.414062 8.414062 4.644531 0 8.414062-3.765625 8.414062-8.414062v-94.992188c0 4.644531-3.769531 8.414063-8.414062 8.414063zm0 0"/></g><path d="m503.59375 221.949219c-.222656 0-.449219-.007813-.675781-.027344l-413.714844-32.832031c-4.632813-.367188-8.089844-4.421875-7.722656-9.054688.367187-4.632812 4.425781-8.082031 9.054687-7.722656l413.714844 32.832031c4.632812.371094 8.089844 4.421875 7.722656 9.054688-.347656 4.40625-4.03125 7.75-8.378906 7.75zm0 0" fill="#b8dcf2"/><path d="m503.589844 277.207031c-.058594 0-.113282 0-.171875-.003906l-404.773438-7.976563c-4.644531-.09375-8.339843-3.933593-8.246093-8.578124.089843-4.648438 3.90625-8.375 8.578124-8.25l404.773438 7.976562c4.648438.09375 8.339844 3.9375 8.246094 8.582031-.089844 4.589844-3.839844 8.25-8.40625 8.25zm0 0" fill="#b8dcf2"/><path d="m496.851562 193.796875c-8.363281 0-15.144531-6.78125-15.144531-15.144531 0-.488282-.363281-.902344-.847656-.964844l-47.023437-5.886719c-8.300782-1.039062-14.1875-8.609375-13.148438-16.910156s8.605469-14.191406 16.910156-13.148437l47.023438 5.890624c15.605468 1.953126 27.375 15.289063 27.375 31.019532.003906 8.363281-6.777344 15.144531-15.144532 15.144531zm0 0" fill="#f94862"/><path d="m296.460938 397.421875c-4.648438 0-8.414063-3.769531-8.414063-8.414063v-5.464843c0-4.648438 3.765625-8.414063 8.414063-8.414063 4.648437 0 8.414062 3.765625 8.414062 8.414063v5.464843c0 4.644532-3.765625 8.414063-8.414062 8.414063zm0 0" fill="#b8dcf2"/><path d="m191.269531 397.421875c-4.648437 0-8.414062-3.769531-8.414062-8.414063v-5.464843c0-4.648438 3.765625-8.414063 8.414062-8.414063 4.644531 0 8.414063 3.765625 8.414063 8.414063v5.464843c0 4.644532-3.765625 8.414063-8.414063 8.414063zm0 0" fill="#b8dcf2"/><path d="m465.085938 329.050781h-334.34375c-24.300782 0-44.003907 19.699219-44.003907 44.003907 0 24.300781 19.703125 44 44.003907 44h266.097656c8.367187 0 15.148437-6.78125 15.148437-15.144532 0-8.367187-6.78125-15.144531-15.148437-15.144531h-266.097656c-7.570313 0-13.710938-6.140625-13.710938-13.710937 0-7.574219 6.140625-13.710938 13.710938-13.710938h334.34375c8.363281 0 15.144531-6.78125 15.144531-15.144531.003906-8.367188-6.78125-15.148438-15.144531-15.148438zm0 0" fill="#deeefa"/><path d="m469.835938 163.90625c0-7.679688 4.898437-14.203125 11.730468-16.660156l-43.964844-5.503906c-8.304687-1.042969-15.871093 4.847656-16.914062 13.148437-1.039062 8.296875 4.847656 15.871094 13.148438 16.910156l41.859374 5.242188c-3.589843-3.242188-5.859374-7.917969-5.859374-13.136719zm0 0" fill="#ed3346"/><path d="m235.449219 401.523438c0-5.960938 2.753906-11.277344 7.050781-14.761719h-111.757812c-7.570313 0-13.710938-6.136719-13.710938-13.707031 0-7.574219 6.140625-13.710938 13.710938-13.710938h111.519531c-4.160157-3.484375-6.8125-8.71875-6.8125-14.570312 0-6.539063 3.308593-12.304688 8.335937-15.722657h-113.042968c-24.300782 0-44.003907 19.699219-44.003907 44.003907 0 24.300781 19.703125 44 44.003907 44h112.785156c-4.878906-3.4375-8.078125-9.105469-8.078125-15.53125zm0 0" fill="#b8dcf2"/></svg>