<svg id="icons" enable-background="new 0 0 64 64" height="512" viewBox="0 0 64 64" width="512" xmlns="http://www.w3.org/2000/svg"><path d="m13 29.994c0 13.811 11.19 25 25 25s25-11.189 25-25v4.012c0 13.799-11.19 25-25 25-11.37 0-20.97-7.602-24-17.99-.29-.98-.52-1.98-.68-3-.21-1.311-.32-2.65-.32-4.01z" fill="#f6bb42"/><path d="m52 24.994v3h-2-24-2v-3h3 22z" fill="#ed5565"/><path d="m50 27.994-2 14h-20l-2-14z" fill="#da4453"/><path d="m49 24.994h-22-3v3h2l2 14h20l2-14h2v-3zm-34.7-2.978c.351-1.031.76-2.031 1.24-3 4.06-8.301 12.59-14.022 22.46-14.022 13.81 0 25 11.191 25 25 0 13.811-11.19 25-25 25s-25-11.189-25-25c0-2.789.46-5.469 1.3-7.978z" fill="#ffce54"/><path d="m13.32 38.016c.16 1.02.39 2.02.68 3h-8v-3z" fill="#545c66"/><path d="m15.54 19.016c-.48.969-.89 1.969-1.24 3h-8.3v-3z" fill="#545c66"/><path d="m6 41.016v7h-5v-36h5v7 3 16z" fill="#656d78"/><path d="m6.005 49.016c-.553 0-1-.447-1-1v-36.003c0-.553.447-1 1-1s1 .447 1 1v36.003c0 .552-.447 1-1 1z"/><path d="m6.005 13.013h-5.005c-.553 0-1-.447-1-1s.447-1 1-1h5.005c.553 0 1 .447 1 1s-.447 1-1 1z"/><path d="m6.005 49.016h-5.005c-.553 0-1-.447-1-1s.447-1 1-1h5.005c.553 0 1 .447 1 1s-.447 1-1 1z"/><path d="m38 55.998c-14.337 0-26-11.663-26-26s11.663-26 26-26 26 11.663 26 26-11.663 26-26 26zm0-50c-13.233 0-24 10.767-24 24s10.767 24 24 24 24-10.767 24-24-10.767-24-24-24z"/><path d="m38 55.998c-14.337 0-26-11.663-26-26s11.663-26 26-26 26 11.663 26 26-11.663 26-26 26zm0-50c-13.233 0-24 10.767-24 24s10.767 24 24 24 24-10.767 24-24-10.767-24-24-24z"/><path d="m38 60.002c-14.337 0-26-11.663-26-26 0-.553.447-1 1-1s1 .447 1 1c0 13.233 10.767 24 24 24s24-10.767 24-24c0-.553.447-1 1-1s1 .447 1 1c0 14.337-11.663 26-26 26z"/><path d="m14.302 23.014h-8.297c-.553 0-1-.447-1-1s.447-1 1-1h8.297c.553 0 1 .447 1 1s-.448 1-1 1z"/><path d="m15.535 20.016h-9.53c-.553 0-1-.447-1-1s.447-1 1-1h9.53c.553 0 1 .447 1 1s-.447 1-1 1z"/><path d="m13.32 39.016h-7.315c-.553 0-1-.447-1-1s.447-1 1-1h7.315c.553 0 1 .447 1 1s-.447 1-1 1z"/><path d="m13.997 42.015h-7.992c-.553 0-1-.447-1-1s.447-1 1-1h7.992c.553 0 1 .447 1 1s-.447 1-1 1z"/><path d="m13 35.002c-.553 0-1-.447-1-1v-4.004c0-.553.447-1 1-1s1 .447 1 1v4.004c0 .553-.447 1-1 1z"/><path d="m63 35.002c-.553 0-1-.447-1-1v-4.004c0-.553.447-1 1-1s1 .447 1 1v4.004c0 .553-.447 1-1 1z"/><path d="m1 54.015c-.553 0-1-.447-1-1v-46c0-.553.447-1 1-1s1 .447 1 1v46c0 .552-.447 1-1 1z"/><path d="m51.999 28.998h-28c-.553 0-1-.447-1-1v-2.999c0-.553.447-1 1-1h28c.553 0 1 .447 1 1v2.999c0 .553-.447 1-1 1zm-27-2h26v-.999h-26z"/><path d="m27.998 43c-.49 0-.918-.359-.989-.858l-1.999-14.002c-.078-.547.302-1.054.849-1.132.548-.081 1.054.302 1.132.849l1.999 14.002c.078.547-.302 1.054-.849 1.132-.048.006-.096.009-.143.009z"/><path d="m48.002 43c-.047 0-.095-.003-.143-.01-.547-.078-.927-.585-.849-1.132l1.999-14.002c.078-.545.586-.926 1.132-.849.547.078.927.585.849 1.132l-1.999 14.002c-.071.499-.499.859-.989.859z"/><path d="m48.001 43h-20.002c-.553 0-1-.447-1-1s.447-1 1-1h20.002c.553 0 1 .447 1 1s-.447 1-1 1z"/><path d="m27.001 25.999c-.275 0-.55-.113-.747-.336-.367-.412-.33-1.044.083-1.411l8.999-8.001c.412-.369 1.044-.332 1.411.083.367.412.33 1.044-.083 1.411l-8.999 8.001c-.19.17-.428.253-.664.253z"/><path d="m48.997 25.999c-.236 0-.474-.083-.664-.253l-8.999-8.001c-.413-.367-.45-.999-.083-1.411.366-.415.998-.452 1.411-.083l8.999 8.001c.413.367.45.999.083 1.411-.197.223-.472.336-.747.336z"/><path d="m38.001 39c-.553 0-1-.447-1-1v-6.001c0-.553.447-1 1-1s1 .447 1 1v6.001c0 .553-.447 1-1 1z"/><path d="m43 39c-.553 0-1-.447-1-1v-6.001c0-.553.447-1 1-1s1 .447 1 1v6.001c0 .553-.447 1-1 1z"/><path d="m33.002 39c-.553 0-1-.447-1-1v-6.001c0-.553.447-1 1-1s1 .447 1 1v6.001c0 .553-.447 1-1 1z"/></svg>